<svg width="75" height="65" viewBox="0 0 75 65" fill="none" xmlns="http://www.w3.org/2000/svg">
<path d="M66.6878 49.0344C65.3128 45.1125 62.1081 43.125 59.0144 41.2031C56.3222 39.5297 53.78 37.9484 52.1175 35.1094C47.5347 27.2453 45.0175 22.5 37.5097 22.5C30.0018 22.5 27.4768 27.2469 22.8831 35.1078C21.219 37.9531 18.6643 39.5375 15.969 41.2141C12.8753 43.1375 9.67685 45.1203 8.29716 49.0344C7.76018 50.4458 7.48998 51.9446 7.50028 53.4547C7.50028 59.8203 12.5706 65 18.1878 65C23.805 65 31.205 62.1672 37.5253 62.1672C43.8456 62.1672 51.1425 65 56.83 65C62.5175 65 67.5003 59.8203 67.5003 53.4547C67.5047 51.9437 67.2293 50.445 66.6878 49.0344Z" fill="#F3C053"/>
<path d="M8.75 37.5C13.5825 37.5 17.5 32.4632 17.5 26.25C17.5 20.0368 13.5825 15 8.75 15C3.91751 15 0 20.0368 0 26.25C0 32.4632 3.91751 37.5 8.75 37.5Z" fill="#F3C053"/>
<path d="M26.25 22.5C31.0825 22.5 35 17.4632 35 11.25C35 5.0368 31.0825 0 26.25 0C21.4175 0 17.5 5.0368 17.5 11.25C17.5 17.4632 21.4175 22.5 26.25 22.5Z" fill="#F3C053"/>
<path d="M48.75 22.5C53.5825 22.5 57.5 17.4632 57.5 11.25C57.5 5.0368 53.5825 0 48.75 0C43.9175 0 40 5.0368 40 11.25C40 17.4632 43.9175 22.5 48.75 22.5Z" fill="#F3C053"/>
<path d="M66.25 37.5C71.0825 37.5 75 32.4632 75 26.25C75 20.0368 71.0825 15 66.25 15C61.4175 15 57.5 20.0368 57.5 26.25C57.5 32.4632 61.4175 37.5 66.25 37.5Z" fill="#F3C053"/>
</svg>
