<svg width="75" height="75" viewBox="0 0 75 75" fill="none" xmlns="http://www.w3.org/2000/svg">
<path fill-rule="evenodd" clip-rule="evenodd" d="M48.5353 28.8068C48.7536 29.0245 48.9268 29.2832 49.045 29.568C49.1632 29.8527 49.224 30.158 49.224 30.4663C49.224 30.7747 49.1632 31.0799 49.045 31.3647C48.9268 31.6495 48.7536 31.9081 48.5353 32.1259L34.4714 46.1898C34.2537 46.4081 33.995 46.5813 33.7103 46.6994C33.4255 46.8176 33.1202 46.8784 32.8119 46.8784C32.5036 46.8784 32.1983 46.8176 31.9135 46.6994C31.6287 46.5813 31.3701 46.4081 31.1523 46.1898L24.1204 39.1578C23.9025 38.9399 23.7296 38.6812 23.6116 38.3964C23.4937 38.1117 23.433 37.8065 23.433 37.4983C23.433 37.1901 23.4937 36.8849 23.6116 36.6002C23.7296 36.3154 23.9025 36.0567 24.1204 35.8388C24.3383 35.6208 24.597 35.4479 24.8818 35.33C25.1665 35.2121 25.4717 35.1513 25.7799 35.1513C26.0881 35.1513 26.3933 35.2121 26.6781 35.33C26.9628 35.4479 27.2215 35.6208 27.4395 35.8388L32.8119 41.2159L45.2163 28.8068C45.434 28.5885 45.6927 28.4153 45.9774 28.2972C46.2622 28.179 46.5675 28.1182 46.8758 28.1182C47.1841 28.1182 47.4894 28.179 47.7742 28.2972C48.0589 28.4153 48.3176 28.5885 48.5353 28.8068Z" fill="#F3C053"/>
<path d="M48.1558 11.7771L43.8381 7.35166L47.19 4.07945L50.106 7.06569L54.2783 7.01412C56.0843 6.99275 57.8764 7.33271 59.5491 8.01401C61.2219 8.69531 62.7415 9.70421 64.0186 10.9814C65.2958 12.2585 66.3047 13.7781 66.986 15.4509C67.6673 17.1236 68.0073 18.9157 67.9859 20.7217L67.939 24.894L70.9205 27.81C72.2119 29.0718 73.238 30.5791 73.9386 32.2431C74.6391 33.9072 75 35.6945 75 37.5C75 39.3055 74.6391 41.0928 73.9386 42.7569C73.238 44.4209 72.2119 45.9282 70.9205 47.19L67.9343 50.106L67.9859 54.2783C68.0073 56.0843 67.6673 57.8764 66.986 59.5491C66.3047 61.2219 65.2958 62.7415 64.0186 64.0186C62.7415 65.2958 61.2219 66.3047 59.5491 66.986C57.8764 67.6673 56.0843 68.0073 54.2783 67.9859L50.106 67.939L47.19 70.9205C45.9282 72.2119 44.4209 73.238 42.7569 73.9386C41.0928 74.6391 39.3055 75 37.5 75C35.6945 75 33.9072 74.6391 32.2431 73.9386C30.5791 73.238 29.0718 72.2119 27.81 70.9205L24.894 67.9343L20.7217 67.9859C18.9157 68.0073 17.1236 67.6673 15.4509 66.986C13.7781 66.3047 12.2585 65.2958 10.9814 64.0186C9.70421 62.7415 8.69531 61.2219 8.01401 59.5491C7.33271 57.8764 6.99275 56.0843 7.01412 54.2783L7.061 50.106L4.07945 47.19C2.7881 45.9282 1.762 44.4209 1.06144 42.7569C0.360883 41.0928 0 39.3055 0 37.5C0 35.6945 0.360883 33.9072 1.06144 32.2431C1.762 30.5791 2.7881 29.0718 4.07945 27.81L7.06569 24.894L7.01412 20.7217C6.99275 18.9157 7.33271 17.1236 8.01401 15.4509C8.69531 13.7781 9.70421 12.2585 10.9814 10.9814C12.2585 9.70421 13.7781 8.69531 15.4509 8.01401C17.1236 7.33271 18.9157 6.99275 20.7217 7.01412L24.894 7.061L27.81 4.07945C29.0718 2.7881 30.5791 1.762 32.2431 1.06144C33.9072 0.360883 35.6945 0 37.5 0C39.3055 0 41.0928 0.360883 42.7569 1.06144C44.4209 1.762 45.9282 2.7881 47.19 4.07945L43.8381 7.35166C43.0129 6.50682 42.027 5.8355 40.9386 5.37715C39.8501 4.91881 38.681 4.6827 37.5 4.6827C36.319 4.6827 35.1499 4.91881 34.0614 5.37715C32.973 5.8355 31.9871 6.50682 31.1619 7.35166L26.8489 11.7771L20.6608 11.7021C19.4803 11.6889 18.309 11.9118 17.2158 12.3576C16.1226 12.8034 15.1296 13.4633 14.295 14.2983C13.4604 15.1333 12.8011 16.1267 12.3558 17.2202C11.9105 18.3136 11.6883 19.485 11.7021 20.6655L11.7771 26.8442L7.35166 31.1619C6.50682 31.9871 5.8355 32.973 5.37715 34.0614C4.91881 35.1499 4.6827 36.319 4.6827 37.5C4.6827 38.681 4.91881 39.8501 5.37715 40.9386C5.8355 42.027 6.50682 43.0129 7.35166 43.8381L11.7771 48.1511L11.7021 54.3392C11.6889 55.5197 11.9118 56.691 12.3576 57.7842C12.8034 58.8774 13.4633 59.8704 14.2983 60.705C15.1333 61.5396 16.1267 62.1989 17.2202 62.6442C18.3136 63.0895 19.485 63.3117 20.6655 63.2979L26.8442 63.2229L31.1619 67.6483C31.9871 68.4932 32.973 69.1645 34.0614 69.6228C35.1499 70.0812 36.319 70.3173 37.5 70.3173C38.681 70.3173 39.8501 70.0812 40.9386 69.6228C42.027 69.1645 43.0129 68.4932 43.8381 67.6483L48.1511 63.2229L54.3392 63.2979C55.5197 63.3111 56.691 63.0882 57.7842 62.6424C58.8774 62.1966 59.8704 61.5367 60.705 60.7017C61.5396 59.8667 62.1989 58.8733 62.6442 57.7798C63.0895 56.6864 63.3117 55.515 63.2979 54.3345L63.2229 48.1558L67.6483 43.8381C68.4932 43.0129 69.1645 42.027 69.6228 40.9386C70.0812 39.8501 70.3173 38.681 70.3173 37.5C70.3173 36.319 70.0812 35.1499 69.6228 34.0614C69.1645 32.973 68.4932 31.9871 67.6483 31.1619L63.2229 26.8489L63.2979 20.6608C63.3111 19.4803 63.0882 18.309 62.6424 17.2158C62.1966 16.1226 61.5367 15.1296 60.7017 14.295C59.8667 13.4604 58.8733 12.8011 57.7798 12.3558C56.6864 11.9105 55.515 11.6883 54.3345 11.7021L48.1558 11.7771Z" fill="#F3C053"/>
</svg>
