<svg width="25" height="22" viewBox="0 0 25 22" fill="none" xmlns="http://www.w3.org/2000/svg">
<path d="M22.2292 16.3438C21.7709 15.0365 20.7026 14.374 19.6714 13.7334C18.774 13.1756 17.9266 12.6485 17.3724 11.7022C15.8448 9.0808 15.0057 7.49902 12.5031 7.49902C10.0005 7.49902 9.15885 9.08132 7.62759 11.7016C7.0729 12.6501 6.22134 13.1782 5.3229 13.7371C4.29164 14.3782 3.2255 15.0391 2.7656 16.3438C2.58661 16.8143 2.49654 17.3139 2.49997 17.8173C2.49997 19.9392 4.19008 21.6657 6.06248 21.6657C7.93488 21.6657 10.4016 20.7215 12.5083 20.7215C14.6151 20.7215 17.0474 21.6657 18.9433 21.6657C20.8391 21.6657 22.5 19.9392 22.5 17.8173C22.5015 17.3136 22.4097 16.8141 22.2292 16.3438Z" fill="white"/>
<path d="M2.91668 12.501C4.52751 12.501 5.83335 10.8221 5.83335 8.75099C5.83335 6.67991 4.52751 5.00098 2.91668 5.00098C1.30584 5.00098 0 6.67991 0 8.75099C0 10.8221 1.30584 12.501 2.91668 12.501Z" fill="white"/>
<path d="M8.75029 7.50002C10.3611 7.50002 11.667 5.82109 11.667 3.75001C11.667 1.67894 10.3611 0 8.75029 0C7.13946 0 5.83362 1.67894 5.83362 3.75001C5.83362 5.82109 7.13946 7.50002 8.75029 7.50002Z" fill="white"/>
<path d="M16.2499 7.50002C17.8608 7.50002 19.1666 5.82109 19.1666 3.75001C19.1666 1.67894 17.8608 0 16.2499 0C14.6391 0 13.3333 1.67894 13.3333 3.75001C13.3333 5.82109 14.6391 7.50002 16.2499 7.50002Z" fill="white"/>
<path d="M22.0833 12.501C23.6941 12.501 25 10.8221 25 8.75099C25 6.67991 23.6941 5.00098 22.0833 5.00098C20.4725 5.00098 19.1666 6.67991 19.1666 8.75099C19.1666 10.8221 20.4725 12.501 22.0833 12.501Z" fill="white"/>
</svg>
