<svg width="16" height="22" viewBox="0 0 16 22" fill="none" xmlns="http://www.w3.org/2000/svg">
<path d="M7.99996 0.166992C3.80746 0.166992 0.416626 3.55783 0.416626 7.75033C0.416626 13.4378 7.99996 21.8337 7.99996 21.8337C7.99996 21.8337 15.5833 13.4378 15.5833 7.75033C15.5833 3.55783 12.1925 0.166992 7.99996 0.166992ZM7.99996 10.4587C7.28167 10.4587 6.59279 10.1733 6.08488 9.66541C5.57697 9.1575 5.29163 8.46862 5.29163 7.75033C5.29163 7.03203 5.57697 6.34316 6.08488 5.83524C6.59279 5.32733 7.28167 5.04199 7.99996 5.04199C8.71826 5.04199 9.40713 5.32733 9.91504 5.83524C10.423 6.34316 10.7083 7.03203 10.7083 7.75033C10.7083 8.46862 10.423 9.1575 9.91504 9.66541C9.40713 10.1733 8.71826 10.4587 7.99996 10.4587Z" fill="#C4C4C4"/>
</svg>
