<svg width="25" height="22" viewBox="0 0 25 22" fill="none" xmlns="http://www.w3.org/2000/svg">
<path d="M24.9441 1.18578C25.0009 1.06425 25.0148 0.931125 24.9841 0.802896C24.9533 0.674668 24.8793 0.556978 24.7712 0.464419C24.6631 0.371859 24.5256 0.3085 24.3758 0.282196C24.226 0.255892 24.0704 0.2678 23.9285 0.316443L1.19957 8.09901H1.198L0.491779 8.33975C0.358019 8.38542 0.241609 8.46185 0.155409 8.5606C0.0692094 8.65935 0.016574 8.77657 0.00331741 8.89932C-0.00993922 9.02207 0.0166988 9.14556 0.080289 9.25617C0.143879 9.36677 0.241947 9.46017 0.363659 9.52606L1.00426 9.87379L1.00582 9.87647L8.81024 14.1269L13.7757 20.8074L13.7788 20.81L14.1851 21.3584C14.2623 21.4622 14.3715 21.5457 14.5006 21.5998C14.6297 21.6539 14.7737 21.6764 14.9168 21.665C15.06 21.6535 15.1966 21.6084 15.3117 21.5348C15.4269 21.4611 15.516 21.3616 15.5694 21.2474L24.9441 1.18578ZM22.0801 3.71354L10.3711 13.7363L10.0352 13.2843C9.97365 13.2013 9.89149 13.131 9.79458 13.0783L9.26647 12.7908L20.9754 2.76797L22.816 2.13804L22.0817 3.71354H22.0801Z" fill="white"/>
</svg>
